<svg xmlns="http://www.w3.org/2000/svg" viewBox="0 0 326.544 596.354"><defs><style>.a{fill:#a6ed8e;}</style></defs><path class="a" d="M596.354-1174.562H0c1.833,2.731,3.9,5.59,6.134,8.5,3.037,3.946,6.324,7.889,9.771,11.717,4.248,4.718,8.767,9.293,13.43,13.6a201.309,201.309,0,0,0,17.109,14.133,189.045,189.045,0,0,0,20.809,13.328c3.862,2.126,7.832,4.125,11.8,5.943,4.169,1.91,8.453,3.672,12.732,5.239,4.481,1.64,9.079,3.109,13.667,4.366,4.791,1.313,9.705,2.432,14.605,3.326,5.1.931,10.331,1.643,15.546,2.119,5.414.493,10.962.743,16.49.743.7,0,1.358,0,2.012-.011,6.892-.074,14.045-.365,21.869-.888,6.974-.467,14.317-1.109,22.446-1.963,15.119-1.588,30.709-3.682,45.785-5.707h.01l.016,0h.006c15.519-2.085,31.567-4.24,47-5.828,8.3-.854,15.785-1.482,22.873-1.919,7.952-.489,15.2-.727,22.144-.727,5.908,0,11.618.181,16.973.537,5.658.376,11.125.963,16.251,1.743a150.383,150.383,0,0,1,15.414,3.15,120.372,120.372,0,0,1,14.462,4.757,101.485,101.485,0,0,1,13.4,6.563,91.992,91.992,0,0,1,12.214,8.569,91.389,91.389,0,0,1,10.918,10.776,100.069,100.069,0,0,1,9.508,13.182c2.019,3.33,4.02,6.826,5.945,10.39,1.83,3.388,3.653,6.949,5.418,10.585,3.247,6.692,6.363,13.747,9.527,21.57,5.865,14.5,10.893,29.209,15.756,43.432,10.495,30.693,20.408,59.685,37.041,82.208,2.106,2.852,4.315,5.588,6.566,8.131,2.33,2.632,4.779,5.143,7.28,7.463A99.493,99.493,0,0,0,541-868.807a97.946,97.946,0,0,0,8.962,5.954,101.538,101.538,0,0,0,9.93,5.113,110.574,110.574,0,0,0,10.984,4.215c3.868,1.256,7.947,2.353,12.123,3.26,4.259.925,8.749,1.681,13.346,2.246h.009v-326.544Z" transform="translate(-848.018 0) rotate(90)"/></svg>