<svg xmlns="http://www.w3.org/2000/svg" viewBox="0 0 1731.512 959.064"><defs><style>.a{fill:#a6ed8e;}</style></defs><path class="a" d="M1731.512-215.5H0c5.323-8.022,11.315-16.418,17.809-24.954,8.817-11.59,18.362-23.169,28.37-34.413C58.514-288.725,71.633-302.16,85.172-314.8a586.007,586.007,0,0,1,49.675-41.508,548.084,548.084,0,0,1,60.419-39.145c11.214-6.244,22.74-12.116,34.257-17.454,12.106-5.61,24.544-10.786,36.967-15.386,13.011-4.816,26.362-9.131,39.683-12.824,13.911-3.857,28.179-7.144,42.406-9.77,14.809-2.734,30-4.828,45.138-6.223,15.72-1.449,31.829-2.183,47.877-2.183,2.032,0,3.943.01,5.842.032,20.01.218,40.78,1.071,63.5,2.609,20.25,1.372,41.568,3.258,65.172,5.765,43.9,4.663,89.162,10.813,132.938,16.762l.025,0h.005l.045.006.018,0c45.06,6.122,91.655,12.453,136.469,17.115,24.107,2.509,45.83,4.352,66.411,5.635,23.088,1.437,44.119,2.136,64.295,2.136,17.153,0,33.734-.53,49.281-1.577,16.427-1.105,32.3-2.828,47.184-5.12a432.373,432.373,0,0,0,44.753-9.252,346.733,346.733,0,0,0,41.989-13.971,293.251,293.251,0,0,0,38.895-19.276,267.106,267.106,0,0,0,35.464-25.169,266.856,266.856,0,0,0,31.7-31.649,293.8,293.8,0,0,0,27.606-38.715c5.864-9.78,11.672-20.047,17.263-30.516,5.314-9.949,10.606-20.409,15.73-31.089,9.428-19.653,18.476-40.376,27.662-63.352,17.028-42.589,31.629-85.786,45.749-127.56,30.472-90.147,59.253-175.295,107.548-241.446,6.115-8.376,12.529-16.411,19.064-23.881,6.764-7.731,13.875-15.106,21.136-21.92a289.754,289.754,0,0,1,23.456-19.787,284,284,0,0,1,26.02-17.487,293.54,293.54,0,0,1,28.833-15.019,318.936,318.936,0,0,1,31.892-12.379,362.425,362.425,0,0,1,35.2-9.573c12.365-2.717,25.4-4.936,38.751-6.6l.013,0h.013V-215.5Z" transform="translate(0 1174.563)"/></svg>